<?xml version="1.0" ?><svg style="enable-background:new 0 0 90.927 81.141;" version="1.1" viewBox="0 0 90.927 81.141" xml:space="preserve" xmlns="http://www.w3.org/2000/svg" xmlns:xlink="http://www.w3.org/1999/xlink"><g id="pencil"><path d="M76.663,55.441L13.593,0C5.806,1.758,1.275,6.845,0,15.263l63.264,55.455l27.663,10.424L76.663,55.441z M32.733,20.101   l38.127,33.372c-0.54-0.167-0.988-0.264-1.343-0.289c-1.292-0.091-1.982,0.477-2.068,1.705l0.014,0.488L29.449,21.77   C30.572,21.037,31.667,20.481,32.733,20.101z M27.536,23.34l38.39,33.781c-1.511,0.251-2.321,1.151-2.431,2.702L25.299,26.056   C25.859,25.024,26.605,24.119,27.536,23.34z M14.639,24.575L2.848,14.246c1.55-5.865,4.905-9.705,10.066-11.517l11.704,10.176   C19.558,15.147,16.231,19.036,14.639,24.575z M60.537,65.167L22.566,31.66c0.486-1.361,0.992-2.544,1.516-3.546l37.874,33.5   c-0.616-0.011-1.079,0.111-1.389,0.365c-0.31,0.254-0.483,0.64-0.52,1.157C60.015,63.588,60.179,64.266,60.537,65.167z    M64.903,68.884c-2.06-2.094-3.058-3.608-2.992-4.546c0.027-0.388,0.152-0.663,0.375-0.826c0.223-0.163,0.56-0.228,1.012-0.197   c0.937,0.066,2.513,0.746,4.728,2.038c-1.809-1.978-2.67-3.581-2.584-4.809c0.043-0.613,0.245-1.062,0.606-1.345   c0.361-0.283,0.898-0.4,1.608-0.349c0.744,0.052,2.223,0.709,4.44,1.969c-1.913-1.888-2.823-3.494-2.73-4.82   c0.025-0.355,0.141-0.615,0.347-0.779c0.206-0.164,0.52-0.231,0.94-0.202c1.454,0.102,2.961,0.842,4.52,2.218l7.498,13.875   l-3.008,3.295L64.903,68.884z"/></g><g id="Слой_1"/></svg>